<svg xmlns="http://www.w3.org/2000/svg" xmlns:xlink="http://www.w3.org/1999/xlink" width="195" height="160" viewBox="0 0 195 160">
  <defs>
    <clipPath id="clip-path">
      <rect width="195" height="160" fill="none"/>
    </clipPath>
  </defs>
  <g id="abstract" opacity="0.3" clip-path="url(#clip-path)">
    <g transform="translate(-1501 -3235)">
      <rect id="Rectangle_42" data-name="Rectangle 42" width="8" height="8" rx="4" transform="translate(1501 3235)" fill="#0059ca"/>
    </g>
    <g transform="translate(-1483 -3235)">
      <rect id="Rectangle_42-2" data-name="Rectangle 42" width="8" height="8" rx="4" transform="translate(1501 3235)" fill="#0059ca"/>
    </g>
    <g transform="translate(-1465 -3235)">
      <rect id="Rectangle_42-3" data-name="Rectangle 42" width="8" height="8" rx="4" transform="translate(1501 3235)" fill="#0059ca"/>
    </g>
    <g transform="translate(-1447 -3235)">
      <rect id="Rectangle_42-4" data-name="Rectangle 42" width="8" height="8" rx="4" transform="translate(1501 3235)" fill="#0059ca"/>
    </g>
    <g transform="translate(-1429 -3235)">
      <rect id="Rectangle_42-5" data-name="Rectangle 42" width="8" height="8" rx="4" transform="translate(1501 3235)" fill="#0059ca"/>
    </g>
    <g transform="translate(-1411 -3235)">
      <rect id="Rectangle_42-6" data-name="Rectangle 42" width="8" height="8" rx="4" transform="translate(1501 3235)" fill="#0059ca"/>
    </g>
    <g transform="translate(-1393 -3235)">
      <rect id="Rectangle_42-7" data-name="Rectangle 42" width="8" height="8" rx="4" transform="translate(1501 3235)" fill="#0059ca"/>
    </g>
    <g transform="translate(-1375 -3235)">
      <rect id="Rectangle_42-8" data-name="Rectangle 42" width="8" height="8" rx="4" transform="translate(1501 3235)" fill="#0059ca"/>
    </g>
    <g transform="translate(-1357 -3235)">
      <rect id="Rectangle_42-9" data-name="Rectangle 42" width="8" height="8" rx="4" transform="translate(1501 3235)" fill="#0059ca"/>
    </g>
    <g transform="translate(-1339 -3235)">
      <rect id="Rectangle_42-10" data-name="Rectangle 42" width="8" height="8" rx="4" transform="translate(1501 3235)" fill="#0059ca"/>
    </g>
    <g transform="translate(-1321 -3235)">
      <rect id="Rectangle_42-11" data-name="Rectangle 42" width="8" height="8" rx="4" transform="translate(1501 3235)" fill="#0059ca"/>
    </g>
    <g transform="translate(-1501 -3207)">
      <rect id="Rectangle_42-12" data-name="Rectangle 42" width="8" height="8" rx="4" transform="translate(1501 3235)" fill="#0059ca"/>
    </g>
    <g transform="translate(-1483 -3207)">
      <rect id="Rectangle_42-13" data-name="Rectangle 42" width="8" height="8" rx="4" transform="translate(1501 3235)" fill="#0059ca"/>
    </g>
    <g transform="translate(-1465 -3207)">
      <rect id="Rectangle_42-14" data-name="Rectangle 42" width="8" height="8" rx="4" transform="translate(1501 3235)" fill="#0059ca"/>
    </g>
    <g transform="translate(-1447 -3207)">
      <rect id="Rectangle_42-15" data-name="Rectangle 42" width="8" height="8" rx="4" transform="translate(1501 3235)" fill="#0059ca"/>
    </g>
    <g transform="translate(-1429 -3207)">
      <rect id="Rectangle_42-16" data-name="Rectangle 42" width="8" height="8" rx="4" transform="translate(1501 3235)" fill="#0059ca"/>
    </g>
    <g transform="translate(-1411 -3207)">
      <rect id="Rectangle_42-17" data-name="Rectangle 42" width="8" height="8" rx="4" transform="translate(1501 3235)" fill="#0059ca"/>
    </g>
    <g transform="translate(-1393 -3207)">
      <rect id="Rectangle_42-18" data-name="Rectangle 42" width="8" height="8" rx="4" transform="translate(1501 3235)" fill="#0059ca"/>
    </g>
    <g transform="translate(-1375 -3207)">
      <rect id="Rectangle_42-19" data-name="Rectangle 42" width="8" height="8" rx="4" transform="translate(1501 3235)" fill="#0059ca"/>
    </g>
    <g transform="translate(-1357 -3207)">
      <rect id="Rectangle_42-20" data-name="Rectangle 42" width="8" height="8" rx="4" transform="translate(1501 3235)" fill="#0059ca"/>
    </g>
    <g transform="translate(-1339 -3207)">
      <rect id="Rectangle_42-21" data-name="Rectangle 42" width="8" height="8" rx="4" transform="translate(1501 3235)" fill="#0059ca"/>
    </g>
    <g transform="translate(-1321 -3207)">
      <rect id="Rectangle_42-22" data-name="Rectangle 42" width="8" height="8" rx="4" transform="translate(1501 3235)" fill="#0059ca"/>
    </g>
    <g transform="translate(-1501 -3179)">
      <rect id="Rectangle_42-23" data-name="Rectangle 42" width="8" height="8" rx="4" transform="translate(1501 3235)" fill="#0059ca"/>
    </g>
    <g transform="translate(-1483 -3179)">
      <rect id="Rectangle_42-24" data-name="Rectangle 42" width="8" height="8" rx="4" transform="translate(1501 3235)" fill="#0059ca"/>
    </g>
    <g transform="translate(-1465 -3179)">
      <rect id="Rectangle_42-25" data-name="Rectangle 42" width="8" height="8" rx="4" transform="translate(1501 3235)" fill="#0059ca"/>
    </g>
    <g transform="translate(-1447 -3179)">
      <rect id="Rectangle_42-26" data-name="Rectangle 42" width="8" height="8" rx="4" transform="translate(1501 3235)" fill="#0059ca"/>
    </g>
    <g transform="translate(-1429 -3179)">
      <rect id="Rectangle_42-27" data-name="Rectangle 42" width="8" height="8" rx="4" transform="translate(1501 3235)" fill="#0059ca"/>
    </g>
    <g transform="translate(-1411 -3179)">
      <rect id="Rectangle_42-28" data-name="Rectangle 42" width="8" height="8" rx="4" transform="translate(1501 3235)" fill="#0059ca"/>
    </g>
    <g transform="translate(-1393 -3179)">
      <rect id="Rectangle_42-29" data-name="Rectangle 42" width="8" height="8" rx="4" transform="translate(1501 3235)" fill="#0059ca"/>
    </g>
    <g transform="translate(-1375 -3179)">
      <rect id="Rectangle_42-30" data-name="Rectangle 42" width="8" height="8" rx="4" transform="translate(1501 3235)" fill="#0059ca"/>
    </g>
    <g transform="translate(-1357 -3179)">
      <rect id="Rectangle_42-31" data-name="Rectangle 42" width="8" height="8" rx="4" transform="translate(1501 3235)" fill="#0059ca"/>
    </g>
    <g transform="translate(-1339 -3179)">
      <rect id="Rectangle_42-32" data-name="Rectangle 42" width="8" height="8" rx="4" transform="translate(1501 3235)" fill="#0059ca"/>
    </g>
    <g transform="translate(-1321 -3179)">
      <rect id="Rectangle_42-33" data-name="Rectangle 42" width="8" height="8" rx="4" transform="translate(1501 3235)" fill="#0059ca"/>
    </g>
    <g transform="translate(-1501 -3151)">
      <rect id="Rectangle_42-34" data-name="Rectangle 42" width="8" height="8" rx="4" transform="translate(1501 3235)" fill="#0059ca"/>
    </g>
    <g transform="translate(-1483 -3151)">
      <rect id="Rectangle_42-35" data-name="Rectangle 42" width="8" height="8" rx="4" transform="translate(1501 3235)" fill="#0059ca"/>
    </g>
    <g transform="translate(-1465 -3151)">
      <rect id="Rectangle_42-36" data-name="Rectangle 42" width="8" height="8" rx="4" transform="translate(1501 3235)" fill="#0059ca"/>
    </g>
    <g transform="translate(-1447 -3151)">
      <rect id="Rectangle_42-37" data-name="Rectangle 42" width="8" height="8" rx="4" transform="translate(1501 3235)" fill="#0059ca"/>
    </g>
    <g transform="translate(-1429 -3151)">
      <rect id="Rectangle_42-38" data-name="Rectangle 42" width="8" height="8" rx="4" transform="translate(1501 3235)" fill="#0059ca"/>
    </g>
    <g transform="translate(-1411 -3151)">
      <rect id="Rectangle_42-39" data-name="Rectangle 42" width="8" height="8" rx="4" transform="translate(1501 3235)" fill="#0059ca"/>
    </g>
    <g transform="translate(-1393 -3151)">
      <rect id="Rectangle_42-40" data-name="Rectangle 42" width="8" height="8" rx="4" transform="translate(1501 3235)" fill="#0059ca"/>
    </g>
    <g transform="translate(-1375 -3151)">
      <rect id="Rectangle_42-41" data-name="Rectangle 42" width="8" height="8" rx="4" transform="translate(1501 3235)" fill="#0059ca"/>
    </g>
    <g transform="translate(-1357 -3151)">
      <rect id="Rectangle_42-42" data-name="Rectangle 42" width="8" height="8" rx="4" transform="translate(1501 3235)" fill="#0059ca"/>
    </g>
    <g transform="translate(-1339 -3151)">
      <rect id="Rectangle_42-43" data-name="Rectangle 42" width="8" height="8" rx="4" transform="translate(1501 3235)" fill="#0059ca"/>
    </g>
    <g transform="translate(-1321 -3151)">
      <rect id="Rectangle_42-44" data-name="Rectangle 42" width="8" height="8" rx="4" transform="translate(1501 3235)" fill="#0059ca"/>
    </g>
    <g transform="translate(-1501 -3123)">
      <rect id="Rectangle_42-45" data-name="Rectangle 42" width="8" height="8" rx="4" transform="translate(1501 3235)" fill="#0059ca"/>
    </g>
    <g transform="translate(-1483 -3123)">
      <rect id="Rectangle_42-46" data-name="Rectangle 42" width="8" height="8" rx="4" transform="translate(1501 3235)" fill="#0059ca"/>
    </g>
    <g transform="translate(-1465 -3123)">
      <rect id="Rectangle_42-47" data-name="Rectangle 42" width="8" height="8" rx="4" transform="translate(1501 3235)" fill="#0059ca"/>
    </g>
    <g transform="translate(-1447 -3123)">
      <rect id="Rectangle_42-48" data-name="Rectangle 42" width="8" height="8" rx="4" transform="translate(1501 3235)" fill="#0059ca"/>
    </g>
    <g transform="translate(-1429 -3123)">
      <rect id="Rectangle_42-49" data-name="Rectangle 42" width="8" height="8" rx="4" transform="translate(1501 3235)" fill="#0059ca"/>
    </g>
    <g transform="translate(-1411 -3123)">
      <rect id="Rectangle_42-50" data-name="Rectangle 42" width="8" height="8" rx="4" transform="translate(1501 3235)" fill="#0059ca"/>
    </g>
    <g transform="translate(-1393 -3123)">
      <rect id="Rectangle_42-51" data-name="Rectangle 42" width="8" height="8" rx="4" transform="translate(1501 3235)" fill="#0059ca"/>
    </g>
    <g transform="translate(-1375 -3123)">
      <rect id="Rectangle_42-52" data-name="Rectangle 42" width="8" height="8" rx="4" transform="translate(1501 3235)" fill="#0059ca"/>
    </g>
    <g transform="translate(-1357 -3123)">
      <rect id="Rectangle_42-53" data-name="Rectangle 42" width="8" height="8" rx="4" transform="translate(1501 3235)" fill="#0059ca"/>
    </g>
    <g transform="translate(-1339 -3123)">
      <rect id="Rectangle_42-54" data-name="Rectangle 42" width="8" height="8" rx="4" transform="translate(1501 3235)" fill="#0059ca"/>
    </g>
    <g transform="translate(-1321 -3123)">
      <rect id="Rectangle_42-55" data-name="Rectangle 42" width="8" height="8" rx="4" transform="translate(1501 3235)" fill="#0059ca"/>
    </g>
    <g transform="translate(-1501 -3095)">
      <rect id="Rectangle_42-56" data-name="Rectangle 42" width="8" height="8" rx="4" transform="translate(1501 3235)" fill="#0059ca"/>
    </g>
    <g transform="translate(-1483 -3095)">
      <rect id="Rectangle_42-57" data-name="Rectangle 42" width="8" height="8" rx="4" transform="translate(1501 3235)" fill="#0059ca"/>
    </g>
    <g transform="translate(-1465 -3095)">
      <rect id="Rectangle_42-58" data-name="Rectangle 42" width="8" height="8" rx="4" transform="translate(1501 3235)" fill="#0059ca"/>
    </g>
    <g transform="translate(-1447 -3095)">
      <rect id="Rectangle_42-59" data-name="Rectangle 42" width="8" height="8" rx="4" transform="translate(1501 3235)" fill="#0059ca"/>
    </g>
    <g transform="translate(-1429 -3095)">
      <rect id="Rectangle_42-60" data-name="Rectangle 42" width="8" height="8" rx="4" transform="translate(1501 3235)" fill="#0059ca"/>
    </g>
    <g transform="translate(-1411 -3095)">
      <rect id="Rectangle_42-61" data-name="Rectangle 42" width="8" height="8" rx="4" transform="translate(1501 3235)" fill="#0059ca"/>
    </g>
    <g transform="translate(-1393 -3095)">
      <rect id="Rectangle_42-62" data-name="Rectangle 42" width="8" height="8" rx="4" transform="translate(1501 3235)" fill="#0059ca"/>
    </g>
    <g transform="translate(-1375 -3095)">
      <rect id="Rectangle_42-63" data-name="Rectangle 42" width="8" height="8" rx="4" transform="translate(1501 3235)" fill="#0059ca"/>
    </g>
    <g transform="translate(-1357 -3095)">
      <rect id="Rectangle_42-64" data-name="Rectangle 42" width="8" height="8" rx="4" transform="translate(1501 3235)" fill="#0059ca"/>
    </g>
    <g transform="translate(-1339 -3095)">
      <rect id="Rectangle_42-65" data-name="Rectangle 42" width="8" height="8" rx="4" transform="translate(1501 3235)" fill="#0059ca"/>
    </g>
    <g transform="translate(-1321 -3095)">
      <rect id="Rectangle_42-66" data-name="Rectangle 42" width="8" height="8" rx="4" transform="translate(1501 3235)" fill="#0059ca"/>
    </g>
  </g>
</svg>
