<svg xmlns="http://www.w3.org/2000/svg" width="163.248" height="73.782" viewBox="0 0 163.248 73.782">
  <g id="motoindex-logo" transform="translate(-328.378 -148.142)">
    <g id="Group_2" data-name="Group 2" transform="translate(328.378 209.103)">
      <path id="Path_15" data-name="Path 15" d="M8.153-29.283a2.274,2.274,0,0,0-2.1-1.317,2.2,2.2,0,0,0-2.171,1.707L.675-17.983H4.442l1.169-4.323c.371-1.392.649-2.431.835-3.414.39.835.835,1.707,1.744,3.414L9.86-19.17a2.117,2.117,0,0,0,2.208,1.392,2.117,2.117,0,0,0,2.208-1.392l1.67-3.117c.854-1.614,1.317-2.561,1.726-3.433.2,1,.464,2,.854,3.414l1.169,4.323h3.822L20.38-28.893A2.182,2.182,0,0,0,18.228-30.6a2.312,2.312,0,0,0-2.115,1.317l-1.985,3.525c-1.095,1.911-1.577,2.82-1.985,3.692-.427-.872-.909-1.8-2-3.711ZM32.886-30.6c-6.049,0-9.073,1.967-9.073,6.4s3.024,6.42,9.073,6.42c6.03,0,9.073-1.985,9.073-6.42S38.916-30.6,32.886-30.6Zm0,9.593c-3.859,0-5.251-.52-5.251-3.191s1.392-3.173,5.251-3.173,5.251.5,5.251,3.173S36.745-21.007,32.886-21.007ZM45.225-30.4l-2.486,3.229h5.826v9.185h3.841v-9.185H56.84L59.326-30.4Zm22.191-.2c-6.049,0-9.073,1.967-9.073,6.4s3.024,6.42,9.073,6.42c6.03,0,9.073-1.985,9.073-6.42S73.446-30.6,67.416-30.6Zm0,9.593c-3.859,0-5.251-.52-5.251-3.191s1.392-3.173,5.251-3.173,5.251.5,5.251,3.173S71.275-21.007,67.416-21.007ZM89.44-30.4H85.6v12.413H89.44Zm14.974,12.617a2.062,2.062,0,0,0,2.115-2.338V-30.4h-3.507V-23.1l-7.607-6.828a2.116,2.116,0,0,0-1.54-.668,2.042,2.042,0,0,0-2.1,2.319v10.3h3.488v-7.292l7.607,6.828A2.063,2.063,0,0,0,104.414-17.779Zm20.169-6.531c0-3.581-3.136-6.086-7.478-6.086h-5.863l-2.449,3.229h8.312c2.078,0,3.674,1.28,3.674,3.024,0,1.781-1.54,2.969-3.674,2.969h-4.453V-25.72h-3.859v7.737h8.312C121.41-17.983,124.583-20.71,124.583-24.31Zm5.808,3.136v-1.688h7.626l2.208-2.82h-9.834v-1.484h8.034l2.486-3.229h-14.38v12.413H138.48l2.468-3.191ZM154.92-30.4l-3.989,3.859L146.978-30.4h-5.325l3.8,3.562a34.694,34.694,0,0,0,2.895,2.579c-.464.353-1,.8-2.895,2.542l-4.045,3.729h4.769l4.36-4.1,4.23,4.1h5.418l-3.971-3.729a33.242,33.242,0,0,0-3.006-2.69c.464-.353,1.039-.854,2.765-2.412l3.915-3.581Z" transform="translate(-0.675 30.6)" fill="#0059ca"/>
    </g>
    <g id="Group_10" data-name="Group 10" transform="translate(333.743 148.142)">
      <path id="Path_7" data-name="Path 7" d="M753.03,846.793H729.917L748.4,825.808h15.866Z" transform="translate(-699.869 -807.987)" fill="#00d790"/>
      <path id="Path_8" data-name="Path 8" d="M835.44,793.86c4.438-13.074,14.164-25.522,28.1-34.184,16.733-10.4,35.674-12.947,51.093-8.373-17.432-9.891-42.893-8.6-64.968,5.129-15.365,9.553-26.044,23.242-30.734,37.428Z" transform="translate(-776.516 -738.272)" fill="#00d790"/>
      <g id="Group_7" data-name="Group 7" transform="translate(65.065 14.608)">
        <path id="Path_9" data-name="Path 9" d="M1053.473,815.36l9.777-5.423c-11.414-8.634-30.759-9.909-49.344-1.963-16.8,7.184-28.6,20.026-31.918,32.929,3.99-10.665,14.019-20.836,27.8-26.727C1026,807.244,1042.9,808.163,1053.473,815.36Z" transform="translate(-981.988 -802.679)" fill="#0059ca"/>
        <path id="Path_10" data-name="Path 10" d="M1538.418,878.659l-8.832,6.081a22.981,22.981,0,0,1,4.158,6.44,25.084,25.084,0,0,1,.385,17.907h7.4c3.77-7.9,4.512-16.179,1.377-23.512A24.414,24.414,0,0,0,1538.418,878.659Z" transform="translate(-1453.515 -868.104)" fill="#0059ca"/>
      </g>
      <path id="Path_11" data-name="Path 11" d="M1274.643,823.652l-54.225,30.078a5.951,5.951,0,0,0-2.054,0c-2.742.483-4.643,2.7-4.247,4.95s2.941,3.684,5.682,3.2a5.148,5.148,0,0,0,4.144-3.325Z" transform="translate(-1116.76 -806.13)" fill="#00d790"/>
      <path id="Path_12" data-name="Path 12" d="M527.382,777.032H513.62l13.533-15.368h13.762Z" transform="translate(-513.62 -752.754)" fill="#00d790"/>
      <path id="Path_13" data-name="Path 13" d="M719,715.342H699.371l15.693-17.821h19.63Z" transform="translate(-673.567 -697.521)" fill="#0059ca"/>
      <path id="Path_14" data-name="Path 14" d="M539.124,919.957h-16.7l13.35-15.16h16.7Z" transform="translate(-521.203 -876.003)" fill="#0059ca"/>
    </g>
  </g>
</svg>
